<svg height="51" width="240" xmlns="http://www.w3.org/2000/svg"><linearGradient id="a" gradientUnits="userSpaceOnUse" x1="-40" x2="240"><stop stop-color="#7a4eff"/><stop offset="1" stop-color="#b97bf6"/></linearGradient><path d="M4 15l8 12.4q.4.6 0 1.2l-8 12.4h154c8 0 11-4 13-8h37c4 0 5.5-.5 6-1v-2h22l-8-12.4q-.4-.6 0-1.2l8-12.4h-19.5l-2.5 2c-2 1.5-3 2-6 2h-121c-8 0-11 4-13 7z" stroke-width="6.5" stroke="#293252" stroke-linejoin="round" fill="#293252"/><path d="M4 15l8 12.4q.4.6 0 1.2l-8 12.4h67v-26zm70 26c2-4 5-8 13-8h121c4 0 5.5-.5 6-1v-2-24c-2 1.5-3 2-6 2h-121c-8 0-11 4-13 7zm143-37v26h19l-8-12.4q-.4-.6 0-1.2l8-12.4z" fill="url(#a)"/><path d="m89.642 18.023 1.65-2.095c-1.316-1.15-3.282-1.89-5.21-1.89-4.041 0-7.082 2.836-7.082 6.58 0 3.764 2.985 6.62 6.915 6.62 1.799 0 3.894-.686 5.266-1.688v-4.987h-2.54v3.412c-.835.426-1.762.704-2.54.704-2.3 0-4.098-1.761-4.098-4.06 0-2.28 1.78-4.042 4.08-4.042 1.26 0 2.595.556 3.559 1.446m10.45-3.986c-3.967 0-6.97 2.8-6.97 6.582 0 3.763 3.003 6.619 6.97 6.619 3.968 0 6.971-2.874 6.971-6.62 0-3.763-3.003-6.58-6.97-6.58m.037 2.559c2.17 0 3.93 1.742 3.93 4.023s-1.76 4.06-3.93 4.06-4.004-1.78-4.004-4.06a3.99 3.99 0 014.004-4.023m14.884-2.466h-5.506v12.978h5.395c4.097 0 6.934-2.67 6.934-6.49 0-3.837-2.8-6.488-6.823-6.488m.074 10.512h-2.651v-8.046h2.521c2.225 0 3.894 1.65 3.894 4.041 0 2.373-1.595 4.005-3.764 4.005m14.8-10.605c-3.968 0-6.972 2.8-6.972 6.582 0 3.763 3.004 6.619 6.971 6.619s6.971-2.874 6.971-6.62c0-3.763-3.003-6.58-6.97-6.58m.036 2.559c2.17 0 3.93 1.742 3.93 4.023s-1.76 4.06-3.93 4.06-4.004-1.78-4.004-4.06a3.99 3.99 0 014.004-4.023m7.624-2.466v2.484h3.95V27.11h2.929V16.614h3.967V14.13zm24.314 0h-5.506V27.11h5.395c4.098 0 6.934-2.67 6.934-6.49 0-3.837-2.8-6.488-6.823-6.488m.075 10.512h-2.652v-8.046h2.522c2.225 0 3.893 1.65 3.893 4.041 0 2.373-1.594 4.005-3.763 4.005m14.799-10.605c-3.968 0-6.971 2.8-6.971 6.582 0 3.763 3.003 6.619 6.97 6.619 3.968 0 6.972-2.874 6.972-6.62 0-3.763-3.004-6.58-6.971-6.58m.037 2.559c2.169 0 3.93 1.742 3.93 4.023s-1.761 4.06-3.93 4.06-4.005-1.78-4.005-4.06a3.99 3.99 0 014.005-4.023m18.34 1.668 1.706-2.076c-1.28-1.317-3.245-2.15-5.117-2.15-3.93 0-6.916 2.817-6.916 6.562 0 3.764 2.93 6.638 6.804 6.638 1.891 0 3.875-.909 5.247-2.318l-1.724-1.872c-.927.927-2.206 1.52-3.374 1.52-2.225 0-3.95-1.743-3.95-4.005s1.725-3.986 3.95-3.986c1.205 0 2.484.667 3.374 1.687m12.426-.426 1.13-2.429c-1.297-.853-3.114-1.409-4.93-1.409-3.004 0-5.025 1.483-5.025 3.838 0 4.598 6.915 3.17 6.915 5.617 0 .798-.723 1.243-1.928 1.243-1.372 0-3.263-.76-4.598-1.947l-1.168 2.392c1.465 1.242 3.597 2.057 5.729 2.057 2.874 0 5.08-1.371 5.08-3.911.018-4.673-6.897-3.338-6.897-5.73 0-.704.667-1.056 1.65-1.056 1.038 0 2.67.519 4.042 1.335M87.698 37.433l.91-1.11a3.96 3.96 0 00-2.732-1.147c-2.098 0-3.692 1.504-3.692 3.504 0 2.01 1.564 3.544 3.633 3.544 1.01 0 2.07-.485 2.802-1.237l-.921-1c-.495.495-1.178.812-1.802.812-1.188 0-2.108-.93-2.108-2.139s.92-2.128 2.108-2.128c.644 0 1.327.356 1.802.9m5.28-2.257c-2.119 0-3.722 1.495-3.722 3.515 0 2.01 1.603 3.534 3.722 3.534S96.7 40.69 96.7 38.69c0-2.01-1.603-3.514-3.722-3.514m.02 1.366c1.158 0 2.099.93 2.099 2.148s-.94 2.168-2.1 2.168a2.156 2.156 0 01-2.138-2.168c0-1.218.97-2.148 2.139-2.148m5.062-1.317v6.93h1.495V37.71l3.356 4.445h1.426v-6.93h-1.485v4.455l-3.366-4.455zm7.448 0v1.327h2.109v5.603h1.564v-5.603h2.119v-1.327zm12.992 6.93-1.475-2.287c.842-.396 1.297-1.168 1.297-2.237 0-1.535-1.03-2.406-2.841-2.406h-3.01v6.93h1.564v-1.98h1.594l1.1 1.98zm-4.465-5.633h1.446c.861 0 1.356.386 1.356 1.158 0 .792-.495 1.188-1.356 1.188h-1.446zm5.934-1.297v6.93h1.564v-6.93zm6.616 0h-3.188v6.93h3.297c1.604 0 2.614-.733 2.614-1.92 0-.911-.545-1.585-1.446-1.753.743-.198 1.198-.782 1.198-1.524 0-1.07-.95-1.733-2.475-1.733m-.079 5.653h-1.544v-1.643h1.544c.733-.01 1.188.297 1.188.801 0 .535-.455.842-1.188.842m0-2.861h-1.544v-1.515h1.544c.594-.01.95.267.95.743 0 .485-.356.772-.95.772m5.706 1.237v-4.029h-1.564v4.03c0 1.83 1.227 2.97 3.148 2.97 1.91 0 3.108-1.14 3.108-2.97v-4.03h-1.564v4.03c0 1-.614 1.603-1.544 1.603s-1.584-.604-1.584-1.604m5.735-4.029v1.327h2.109v5.603h1.564v-5.603h2.119v-1.327zm6.963 0v6.93h1.564v-6.93zm3.429 0v6.93h1.495V37.71l3.356 4.445h1.425v-6.93h-1.485v4.455l-3.366-4.455zm13.319 2.079.88-1.119c-.702-.613-1.752-1.01-2.781-1.01-2.158 0-3.782 1.515-3.782 3.515 0 2.01 1.594 3.534 3.693 3.534.96 0 2.079-.366 2.811-.9V38.66h-1.356v1.822c-.446.228-.94.376-1.356.376-1.228 0-2.188-.94-2.188-2.168 0-1.218.95-2.158 2.178-2.158.673 0 1.386.297 1.9.772" fill="#fff"/><circle r="24.75" cx="41" cy="26" fill="#293252"/><circle cx="41" cy="26" r="21.5" stroke-linecap="round" stroke-dasharray=".75 2.712" fill="none" stroke="#738ed7" stroke-width=".75"/><circle cx="41" cy="26" r="23.5" fill="none" stroke="#506dbd" stroke-width=".64"/><g transform="translate(23 10) scale(.03)"><g fill="#fff"><path d="M105 673v33q407 354 814 0v-33z"/><path fill="none" stroke="#fff" stroke-linejoin="round" stroke-width="64" d="M105 745c0 276 813 276 814 0V427q30-39 56-81-35-59-83-108-43 20-82 47-40-37-88-64 7-51 8-102-59-28-123-42-26 43-46 89-49-7-98 0-20-46-46-89-64 14-123 42 1 51 8 102-48 27-88 64-39-27-82-47-48 49-83 108 26 42 56 81v318z"/><path fill="#478cbf" d="m105 673 152 14q12 1 15 14l4 67 132 10 8-61q2-11 15-15h162q13 4 15 15l8 61 132-10 4-67q3-13 15-14l152-14V427q30-39 56-81-35-59-83-108-43 20-82 47-40-37-88-64 7-51 8-102-59-28-123-42-26 43-46 89-49-7-98 0-20-46-46-89-64 14-123 42 1 51 8 102-48 27-88 64-39-27-82-47-48 49-83 108 26 42 56 81zm0 33v39c0 276 813 276 814 0v-39l-134 12-5 69q-2 10-14 13l-162 11q-12 0-16-11l-10-65H446l-10 65q-4 11-16 11l-162-11q-12-3-14-13l-5-69z"/><path d="M483 600c0 34 58 34 58 0v-86c0-34-58-34-58 0z"/><circle cx="725" cy="526" r="90"/><circle cx="299" cy="526" r="90"/></g><g fill="#414042"><circle cx="307" cy="532" r="60"/><circle cx="717" cy="532" r="60"/></g></g><g transform="translate(48.5 10) rotate(15)"><path d="M8.25 4h1.5l.75 2.25-.6 1.25v9.5h-1.8v-9.5l-.5-1.25z" fill="#8fa7b3"/><path d="M9.25 8.5v8" stroke="#e1e8ed" stroke-linecap="round" stroke-width=".7" fill="none"/><path d="M8.5 4.5h1.25l.5 1.5h-1.5z" stroke-linecap="round" stroke-width=".7" fill="#e1e8ed"/><path d="M11.5 16c.5 0 .5 1.25 0 1.25.5 0 .5.5.5 1V26.5a2 2 0 01-2 2h-2a2 2 0 01-2-2v-8.25c0-.5 0-1 .5-1-.5 0-.5-1.25 0-1.25z" fill="#d92b49"/><path d="M7 18.5v8M9 18v9M11 18.5v8" stroke="#990820" stroke-linecap="round" fill="none"/><path d="M7.75 16.5h3.5" stroke="#f26179" stroke-linecap="round" stroke-width=".7" fill="none"/></g></svg>
